Coordinates
version=1
nRows=13
nColumns=38
inDegrees=no

Units are S.I. units (second, meters, Newtons, ...)
If the header above contains a line with 'inDegrees', this indicates whether rotational values are in degrees (yes) or radians (no).

endheader
time	pelvis_tilt	pelvis_list	pelvis_rotation	pelvis_tx	pelvis_ty	pelvis_tz	hip_flexion_r	hip_adduction_r	hip_rotation_r	knee_angle_r	ankle_angle_r	subtalar_angle_r	mtp_angle_r	hip_flexion_l	hip_adduction_l	hip_rotation_l	knee_angle_l	ankle_angle_l	subtalar_angle_l	mtp_angle_l	lumbar_extension	lumbar_bending	lumbar_rotation	arm_flex_r	arm_add_r	arm_rot_r	elbow_flex_r	pro_sup_r	wrist_flex_r	wrist_dev_r	arm_flex_l	arm_add_l	arm_rot_l	elbow_flex_l	pro_sup_l	wrist_flex_l	wrist_dev_l
1.55	3.00034	1.15929	1.63328	0.607858	-0.290589	1.00409	0.378289	-0.0862934	0.0330059	0.948742	-0.612578	0	0	0.680862	0.039804	-0.153935	0.338254	-0.163804	0	0	0.406506	-0.0701883	0.101887	-0.0422813	-0.239555	0.500529	0.31875	1.33838	0	0	-0.277696	-0.112787	-0.706644	0.405899	1.30558	0	0
1.56	2.99838	1.16148	1.62784	0.607392	-0.302801	1.00572	0.401367	-0.0850574	0.0462408	0.984795	-0.620056	0	0	0.662898	0.0392248	-0.161835	0.333712	-0.153274	0	0	0.40546	-0.0683863	0.103414	-0.0418597	-0.235074	0.526779	0.307685	1.3349	0	0	-0.276293	-0.112953	-0.710449	0.399532	1.30522	0	0
1.57	2.99655	1.16148	1.62373	0.60711	-0.314918	1.00748	0.426186	-0.0845104	0.0573995	1.01835	-0.612048	0	0	0.646433	0.0392212	-0.16981	0.327424	-0.145903	0	0	0.40841	-0.0667002	0.104082	-0.0432633	-0.230575	0.551867	0.297115	1.32927	0	0	-0.275138	-0.113701	-0.714259	0.390776	1.30447	0	0
1.58	2.99618	1.16109	1.62084	0.607109	-0.326933	1.00937	0.450558	-0.0844372	0.0654474	1.04922	-0.592493	0	0	0.630752	0.0395604	-0.177124	0.321441	-0.140822	0	0	0.412562	-0.0653631	0.102618	-0.0458479	-0.226657	0.578007	0.287944	1.32448	0	0	-0.274876	-0.114474	-0.71771	0.382629	1.30394	0	0
1.59	2.99735	1.16162	1.61869	0.607313	-0.338859	1.01142	0.473008	-0.0845611	0.0707693	1.07687	-0.564861	0	0	0.614514	0.040325	-0.180026	0.31549	-0.137246	0	0	0.41569	-0.0644796	0.0987038	-0.0490796	-0.223801	0.601693	0.281842	1.31797	0	0	-0.275597	-0.114868	-0.721826	0.376419	1.30297	0	0
1.6	3.00296	1.16167	1.61497	0.60766	-0.350795	1.01347	0.494526	-0.0839257	0.0720552	1.09988	-0.53313	0	0	0.599344	0.0405457	-0.177197	0.309942	-0.134575	0	0	0.419604	-0.0632691	0.0921204	-0.0542278	-0.222336	0.618726	0.280281	1.30684	0	0	-0.277725	-0.115005	-0.72658	0.372391	1.30144	0	0
1.61	3.01443	1.16348	1.60657	0.607795	-0.363019	1.01564	0.51247	-0.0805912	0.0712516	1.11803	-0.495328	0	0	0.633303	0.00427541	-0.273254	0.418074	-0.128831	0	0	0.421606	-0.0603085	0.0839328	-0.0596174	-0.222161	0.63996	0.280618	1.29256	0	0	-0.280943	-0.114799	-0.733057	0.370169	1.29932	0	0
1.62	3.02516	1.16503	1.60098	0.608256	-0.37487	1.01787	0.531006	-0.0790681	0.069118	1.13305	-0.467921	0	0	0.616733	0.00395459	-0.270397	0.412655	-0.127698	0	0	0.422532	-0.0582316	0.0754556	-0.0658135	-0.221976	0.648727	0.282297	1.28552	0	0	-0.282236	-0.115595	-0.736192	0.366179	1.29798	0	0
1.63	3.03837	1.16538	1.59386	0.609031	-0.386417	1.01977	0.55085	-0.0773336	0.0655456	1.14549	-0.43062	0	0	0.549151	0.0364841	-0.164003	0.28977	-0.131363	0	0	0.423463	-0.0554204	0.0658719	-0.0723601	-0.224178	0.656156	0.287834	1.27422	0	0	-0.284186	-0.114807	-0.740617	0.365341	1.29528	0	0
1.64	3.0525	1.16921	1.5843	0.609438	-0.398014	1.02198	0.566192	-0.0739324	0.0625614	1.15263	-0.403523	0	0	0.528789	0.0342352	-0.162358	0.281512	-0.131751	0	0	0.420112	-0.0517575	0.0591147	-0.0789038	-0.225405	0.65494	0.29267	1.26549	0	0	-0.284257	-0.114701	-0.744346	0.363771	1.29155	0	0
1.65	3.06232	1.16954	1.58001	0.609753	-0.409403	1.02415	0.584633	-0.0724934	0.0592636	1.1555	-0.370811	0	0	0.547758	0.0104609	-0.221059	0.347035	-0.131824	0	0	0.421438	-0.0505289	0.0535322	-0.0865687	-0.225001	0.649605	0.295722	1.25434	0	0	-0.283374	-0.116811	-0.74626	0.358609	1.28912	0	0
1.66	3.0765	1.17099	1.57042	0.610067	-0.420697	1.02612	0.601226	-0.0688186	0.0562642	1.1538	-0.347806	0	0	0.532248	0.00755687	-0.224719	0.342972	-0.131479	0	0	0.420347	-0.0468665	0.04759	-0.0934137	-0.225857	0.642225	0.299856	1.24645	0	0	-0.283667	-0.117829	-0.746398	0.356136	1.28859	0	0
1.67	3.10271	1.18491	1.54328	0.610272	-0.432375	1.02819	0.603627	-0.0585017	0.0541084	1.14875	-0.321517	0	0	0.48417	0.00273497	-0.248825	0.314276	-0.127043	0	0	0.402186	-0.0354812	0.0441188	-0.0986494	-0.232454	0.632196	0.312483	1.23776	0	0	-0.283913	-0.114362	-0.747258	0.360918	1.28682	0	0
